# xmcd CD database file
#
# Track frame offsets:
#	150
#	19232
#	40164
#	62581
#	81746
#	104064
#	125088
#	148678
#	175037
#	202056
#
# Disc length: 2940 seconds
#
# Revision: 0
# Processed by: cddbd v1.5.1PL2 Copyright (c) Steve Scherf et al.
# Submitted via: CDex 1.51
#
DISCID=980b7a0a
DTITLE=Occidental Indigène - Occidental Indigène
DYEAR=1900
DGENRE=Jazz
TTITLE0=Dounianwilikouman
TTITLE1=Yiri
TTITLE2=Sabou Sabou
TTITLE3=Djontilabalon
TTITLE4=Les Visas
TTITLE5=Bombolo
TTITLE6=Sida Kata
TTITLE7=Métropole
TTITLE8=Mousso
TTITLE9=Faso Cadi
EXTD=
EXTT0=
EXTT1=
EXTT2=
EXTT3=
EXTT4=
EXTT5=
EXTT6=
EXTT7=
EXTT8=
EXTT9=
PLAYORDER=
